<mxfile host="app.diagrams.net" modified="2023-04-23T06:20:34.498Z" agent="Mozilla/5.0 (Windows NT 10.0; Win64; x64) AppleWebKit/537.36 (KHTML, like Gecko) Chrome/112.0.0.0 Safari/537.36" etag="scIFJ9lAmqDB7NbaDWM0" version="21.2.1" type="device">
  <diagram id="R2lEEEUBdFMjLlhIrx00" name="Page-1">
    <mxGraphModel dx="2600" dy="2068" grid="1" gridSize="10" guides="1" tooltips="1" connect="1" arrows="1" fold="1" page="1" pageScale="1" pageWidth="850" pageHeight="1100" math="0" shadow="0" extFonts="Permanent Marker^https://fonts.googleapis.com/css?family=Permanent+Marker">
      <root>
        <mxCell id="0" />
        <mxCell id="1" parent="0" />
        <mxCell id="DVXIczmXcuuL40CwADza-1" value="&lt;font style=&quot;font-size: 18px;&quot;&gt;CUSTOMER&lt;/font&gt;" style="rounded=0;whiteSpace=wrap;html=1;" parent="1" vertex="1">
          <mxGeometry x="130" y="160" width="120" height="60" as="geometry" />
        </mxCell>
        <mxCell id="DVXIczmXcuuL40CwADza-2" value="&lt;font style=&quot;font-size: 18px;&quot;&gt;ORDER&lt;/font&gt;" style="rounded=0;whiteSpace=wrap;html=1;" parent="1" vertex="1">
          <mxGeometry x="560" y="160" width="120" height="60" as="geometry" />
        </mxCell>
        <mxCell id="DVXIczmXcuuL40CwADza-3" value="&lt;font style=&quot;font-size: 18px;&quot;&gt;BILL&lt;/font&gt;" style="rounded=0;whiteSpace=wrap;html=1;" parent="1" vertex="1">
          <mxGeometry x="560" y="370" width="120" height="60" as="geometry" />
        </mxCell>
        <mxCell id="DVXIczmXcuuL40CwADza-4" value="&lt;font style=&quot;font-size: 18px;&quot;&gt;EMPLOYEE&lt;/font&gt;" style="rounded=0;whiteSpace=wrap;html=1;" parent="1" vertex="1">
          <mxGeometry x="60" y="420" width="120" height="60" as="geometry" />
        </mxCell>
        <mxCell id="DVXIczmXcuuL40CwADza-5" value="home" style="ellipse;whiteSpace=wrap;html=1;" parent="1" vertex="1">
          <mxGeometry x="-100" y="-70" width="110" height="50" as="geometry" />
        </mxCell>
        <mxCell id="DVXIczmXcuuL40CwADza-6" value="address" style="ellipse;whiteSpace=wrap;html=1;" parent="1" vertex="1">
          <mxGeometry x="-80" y="70" width="110" height="50" as="geometry" />
        </mxCell>
        <mxCell id="DVXIczmXcuuL40CwADza-7" value="name" style="ellipse;whiteSpace=wrap;html=1;" parent="1" vertex="1">
          <mxGeometry x="-110" y="150" width="110" height="50" as="geometry" />
        </mxCell>
        <mxCell id="DVXIczmXcuuL40CwADza-8" value="contact" style="ellipse;whiteSpace=wrap;html=1;" parent="1" vertex="1">
          <mxGeometry x="50" y="30" width="110" height="50" as="geometry" />
        </mxCell>
        <mxCell id="DVXIczmXcuuL40CwADza-9" value="&lt;u&gt;customer_no&lt;/u&gt;" style="ellipse;whiteSpace=wrap;html=1;" parent="1" vertex="1">
          <mxGeometry x="-110" y="250" width="110" height="50" as="geometry" />
        </mxCell>
        <mxCell id="DVXIczmXcuuL40CwADza-10" value="NIC" style="ellipse;whiteSpace=wrap;html=1;" parent="1" vertex="1">
          <mxGeometry x="210" y="30" width="110" height="50" as="geometry" />
        </mxCell>
        <mxCell id="DVXIczmXcuuL40CwADza-11" value="mobile" style="ellipse;whiteSpace=wrap;html=1;" parent="1" vertex="1">
          <mxGeometry x="40" y="-90" width="110" height="50" as="geometry" />
        </mxCell>
        <mxCell id="DVXIczmXcuuL40CwADza-12" value="email" style="ellipse;whiteSpace=wrap;html=1;" parent="1" vertex="1">
          <mxGeometry x="190" y="-90" width="110" height="50" as="geometry" />
        </mxCell>
        <mxCell id="DVXIczmXcuuL40CwADza-13" value="" style="endArrow=none;html=1;rounded=0;exitX=0;exitY=1;exitDx=0;exitDy=0;entryX=0.5;entryY=0;entryDx=0;entryDy=0;" parent="1" source="DVXIczmXcuuL40CwADza-1" target="DVXIczmXcuuL40CwADza-9" edge="1">
          <mxGeometry width="50" height="50" relative="1" as="geometry">
            <mxPoint x="400" y="220" as="sourcePoint" />
            <mxPoint x="450" y="170" as="targetPoint" />
          </mxGeometry>
        </mxCell>
        <mxCell id="DVXIczmXcuuL40CwADza-14" value="" style="endArrow=none;html=1;rounded=0;entryX=1;entryY=0.5;entryDx=0;entryDy=0;exitX=0;exitY=0.5;exitDx=0;exitDy=0;" parent="1" source="DVXIczmXcuuL40CwADza-1" target="DVXIczmXcuuL40CwADza-7" edge="1">
          <mxGeometry width="50" height="50" relative="1" as="geometry">
            <mxPoint x="400" y="220" as="sourcePoint" />
            <mxPoint x="450" y="170" as="targetPoint" />
          </mxGeometry>
        </mxCell>
        <mxCell id="DVXIczmXcuuL40CwADza-15" value="" style="endArrow=none;html=1;rounded=0;entryX=1;entryY=1;entryDx=0;entryDy=0;exitX=0;exitY=0.25;exitDx=0;exitDy=0;" parent="1" source="DVXIczmXcuuL40CwADza-1" target="DVXIczmXcuuL40CwADza-6" edge="1">
          <mxGeometry width="50" height="50" relative="1" as="geometry">
            <mxPoint x="400" y="220" as="sourcePoint" />
            <mxPoint x="450" y="170" as="targetPoint" />
          </mxGeometry>
        </mxCell>
        <mxCell id="DVXIczmXcuuL40CwADza-16" value="" style="endArrow=none;html=1;rounded=0;entryX=0.5;entryY=1;entryDx=0;entryDy=0;exitX=0.25;exitY=0;exitDx=0;exitDy=0;" parent="1" source="DVXIczmXcuuL40CwADza-1" target="DVXIczmXcuuL40CwADza-8" edge="1">
          <mxGeometry width="50" height="50" relative="1" as="geometry">
            <mxPoint x="400" y="220" as="sourcePoint" />
            <mxPoint x="450" y="170" as="targetPoint" />
          </mxGeometry>
        </mxCell>
        <mxCell id="DVXIczmXcuuL40CwADza-17" value="" style="endArrow=none;html=1;rounded=0;entryX=0.5;entryY=1;entryDx=0;entryDy=0;exitX=0.5;exitY=0;exitDx=0;exitDy=0;" parent="1" source="DVXIczmXcuuL40CwADza-1" target="DVXIczmXcuuL40CwADza-10" edge="1">
          <mxGeometry width="50" height="50" relative="1" as="geometry">
            <mxPoint x="400" y="220" as="sourcePoint" />
            <mxPoint x="450" y="170" as="targetPoint" />
          </mxGeometry>
        </mxCell>
        <mxCell id="DVXIczmXcuuL40CwADza-18" value="" style="endArrow=none;html=1;rounded=0;entryX=0.5;entryY=1;entryDx=0;entryDy=0;exitX=0;exitY=0.5;exitDx=0;exitDy=0;" parent="1" source="DVXIczmXcuuL40CwADza-8" target="DVXIczmXcuuL40CwADza-5" edge="1">
          <mxGeometry width="50" height="50" relative="1" as="geometry">
            <mxPoint x="400" y="220" as="sourcePoint" />
            <mxPoint x="450" y="170" as="targetPoint" />
          </mxGeometry>
        </mxCell>
        <mxCell id="DVXIczmXcuuL40CwADza-19" value="" style="endArrow=none;html=1;rounded=0;entryX=0.5;entryY=1;entryDx=0;entryDy=0;exitX=0.5;exitY=0;exitDx=0;exitDy=0;" parent="1" source="DVXIczmXcuuL40CwADza-8" target="DVXIczmXcuuL40CwADza-11" edge="1">
          <mxGeometry width="50" height="50" relative="1" as="geometry">
            <mxPoint x="400" y="220" as="sourcePoint" />
            <mxPoint x="450" y="170" as="targetPoint" />
          </mxGeometry>
        </mxCell>
        <mxCell id="DVXIczmXcuuL40CwADza-20" value="" style="endArrow=none;html=1;rounded=0;entryX=0.5;entryY=1;entryDx=0;entryDy=0;exitX=1;exitY=0;exitDx=0;exitDy=0;" parent="1" source="DVXIczmXcuuL40CwADza-8" target="DVXIczmXcuuL40CwADza-12" edge="1">
          <mxGeometry width="50" height="50" relative="1" as="geometry">
            <mxPoint x="400" y="220" as="sourcePoint" />
            <mxPoint x="450" y="170" as="targetPoint" />
          </mxGeometry>
        </mxCell>
        <mxCell id="DVXIczmXcuuL40CwADza-21" value="&lt;u&gt;order_no&lt;/u&gt;" style="ellipse;whiteSpace=wrap;html=1;" parent="1" vertex="1">
          <mxGeometry x="430" y="20" width="110" height="50" as="geometry" />
        </mxCell>
        <mxCell id="DVXIczmXcuuL40CwADza-23" value="customer_no" style="ellipse;whiteSpace=wrap;html=1;" parent="1" vertex="1">
          <mxGeometry x="730" y="40" width="110" height="50" as="geometry" />
        </mxCell>
        <mxCell id="DVXIczmXcuuL40CwADza-26" value="" style="group" parent="1" vertex="1" connectable="0">
          <mxGeometry x="580" y="-10" width="130" height="60" as="geometry" />
        </mxCell>
        <mxCell id="DVXIczmXcuuL40CwADza-24" value="" style="ellipse;whiteSpace=wrap;html=1;" parent="DVXIczmXcuuL40CwADza-26" vertex="1">
          <mxGeometry width="130" height="60" as="geometry" />
        </mxCell>
        <mxCell id="DVXIczmXcuuL40CwADza-25" value="order_details" style="ellipse;whiteSpace=wrap;html=1;" parent="DVXIczmXcuuL40CwADza-26" vertex="1">
          <mxGeometry x="5.416666666666667" y="3.75" width="119.16666666666667" height="52.5" as="geometry" />
        </mxCell>
        <mxCell id="DVXIczmXcuuL40CwADza-28" value="" style="endArrow=none;html=1;rounded=0;entryX=0.5;entryY=1;entryDx=0;entryDy=0;exitX=0;exitY=0;exitDx=0;exitDy=0;" parent="1" source="DVXIczmXcuuL40CwADza-2" target="DVXIczmXcuuL40CwADza-21" edge="1">
          <mxGeometry width="50" height="50" relative="1" as="geometry">
            <mxPoint x="410" y="270" as="sourcePoint" />
            <mxPoint x="460" y="220" as="targetPoint" />
          </mxGeometry>
        </mxCell>
        <mxCell id="DVXIczmXcuuL40CwADza-29" value="" style="endArrow=none;html=1;rounded=0;exitX=0.5;exitY=0;exitDx=0;exitDy=0;" parent="1" source="DVXIczmXcuuL40CwADza-2" edge="1">
          <mxGeometry width="50" height="50" relative="1" as="geometry">
            <mxPoint x="440" y="300" as="sourcePoint" />
            <mxPoint x="650" y="50" as="targetPoint" />
          </mxGeometry>
        </mxCell>
        <mxCell id="DVXIczmXcuuL40CwADza-30" value="" style="endArrow=none;html=1;rounded=0;entryX=0.44;entryY=1.028;entryDx=0;entryDy=0;entryPerimeter=0;exitX=1;exitY=0;exitDx=0;exitDy=0;" parent="1" source="DVXIczmXcuuL40CwADza-2" target="DVXIczmXcuuL40CwADza-23" edge="1">
          <mxGeometry width="50" height="50" relative="1" as="geometry">
            <mxPoint x="560" y="310" as="sourcePoint" />
            <mxPoint x="610" y="260" as="targetPoint" />
          </mxGeometry>
        </mxCell>
        <mxCell id="DVXIczmXcuuL40CwADza-31" value="status" style="ellipse;whiteSpace=wrap;html=1;" parent="1" vertex="1">
          <mxGeometry x="790" y="160" width="110" height="50" as="geometry" />
        </mxCell>
        <mxCell id="DVXIczmXcuuL40CwADza-32" value="" style="endArrow=none;html=1;rounded=0;entryX=0;entryY=0.5;entryDx=0;entryDy=0;exitX=1;exitY=0.5;exitDx=0;exitDy=0;" parent="1" source="DVXIczmXcuuL40CwADza-2" target="DVXIczmXcuuL40CwADza-31" edge="1">
          <mxGeometry width="50" height="50" relative="1" as="geometry">
            <mxPoint x="660" y="340" as="sourcePoint" />
            <mxPoint x="710" y="290" as="targetPoint" />
          </mxGeometry>
        </mxCell>
        <mxCell id="DVXIczmXcuuL40CwADza-34" value="cashier_no" style="ellipse;whiteSpace=wrap;html=1;" parent="1" vertex="1">
          <mxGeometry x="800" y="410" width="110" height="50" as="geometry" />
        </mxCell>
        <mxCell id="DVXIczmXcuuL40CwADza-36" value="customer_no" style="ellipse;whiteSpace=wrap;html=1;" parent="1" vertex="1">
          <mxGeometry x="770" y="480" width="110" height="50" as="geometry" />
        </mxCell>
        <mxCell id="DVXIczmXcuuL40CwADza-37" value="order_no" style="ellipse;whiteSpace=wrap;html=1;" parent="1" vertex="1">
          <mxGeometry x="670" y="530" width="110" height="50" as="geometry" />
        </mxCell>
        <mxCell id="DVXIczmXcuuL40CwADza-38" value="&lt;u&gt;bill_no&lt;/u&gt;" style="ellipse;whiteSpace=wrap;html=1;" parent="1" vertex="1">
          <mxGeometry x="540" y="540" width="110" height="50" as="geometry" />
        </mxCell>
        <mxCell id="DVXIczmXcuuL40CwADza-39" value="" style="endArrow=none;html=1;rounded=0;entryX=0.25;entryY=1;entryDx=0;entryDy=0;exitX=0.5;exitY=0;exitDx=0;exitDy=0;" parent="1" source="DVXIczmXcuuL40CwADza-38" target="DVXIczmXcuuL40CwADza-3" edge="1">
          <mxGeometry width="50" height="50" relative="1" as="geometry">
            <mxPoint x="410" y="620" as="sourcePoint" />
            <mxPoint x="460" y="570" as="targetPoint" />
          </mxGeometry>
        </mxCell>
        <mxCell id="DVXIczmXcuuL40CwADza-40" value="" style="endArrow=none;html=1;rounded=0;entryX=0.5;entryY=1;entryDx=0;entryDy=0;exitX=0.5;exitY=0;exitDx=0;exitDy=0;" parent="1" source="DVXIczmXcuuL40CwADza-37" target="DVXIczmXcuuL40CwADza-3" edge="1">
          <mxGeometry width="50" height="50" relative="1" as="geometry">
            <mxPoint x="410" y="620" as="sourcePoint" />
            <mxPoint x="460" y="570" as="targetPoint" />
          </mxGeometry>
        </mxCell>
        <mxCell id="DVXIczmXcuuL40CwADza-41" value="" style="endArrow=none;html=1;rounded=0;entryX=1;entryY=1;entryDx=0;entryDy=0;" parent="1" source="DVXIczmXcuuL40CwADza-36" target="DVXIczmXcuuL40CwADza-3" edge="1">
          <mxGeometry width="50" height="50" relative="1" as="geometry">
            <mxPoint x="410" y="620" as="sourcePoint" />
            <mxPoint x="460" y="570" as="targetPoint" />
          </mxGeometry>
        </mxCell>
        <mxCell id="DVXIczmXcuuL40CwADza-42" value="" style="endArrow=none;html=1;rounded=0;entryX=1;entryY=0.75;entryDx=0;entryDy=0;exitX=0;exitY=0.5;exitDx=0;exitDy=0;" parent="1" source="DVXIczmXcuuL40CwADza-34" target="DVXIczmXcuuL40CwADza-3" edge="1">
          <mxGeometry width="50" height="50" relative="1" as="geometry">
            <mxPoint x="410" y="620" as="sourcePoint" />
            <mxPoint x="460" y="570" as="targetPoint" />
          </mxGeometry>
        </mxCell>
        <mxCell id="DVXIczmXcuuL40CwADza-43" value="" style="endArrow=none;html=1;rounded=0;entryX=0;entryY=0.5;entryDx=0;entryDy=0;exitX=1;exitY=0.25;exitDx=0;exitDy=0;" parent="1" source="DVXIczmXcuuL40CwADza-3" target="DVXIczmXcuuL40CwADza-68" edge="1">
          <mxGeometry width="50" height="50" relative="1" as="geometry">
            <mxPoint x="410" y="520" as="sourcePoint" />
            <mxPoint x="800" y="375" as="targetPoint" />
          </mxGeometry>
        </mxCell>
        <mxCell id="DVXIczmXcuuL40CwADza-45" value="name" style="ellipse;whiteSpace=wrap;html=1;" parent="1" vertex="1">
          <mxGeometry x="255" y="530" width="110" height="50" as="geometry" />
        </mxCell>
        <mxCell id="DVXIczmXcuuL40CwADza-47" value="&lt;u&gt;employee_no&lt;/u&gt;" style="ellipse;whiteSpace=wrap;html=1;" parent="1" vertex="1">
          <mxGeometry x="-90" y="515" width="110" height="50" as="geometry" />
        </mxCell>
        <mxCell id="DVXIczmXcuuL40CwADza-48" value="login" style="ellipse;whiteSpace=wrap;html=1;" parent="1" vertex="1">
          <mxGeometry x="-160" y="440" width="110" height="50" as="geometry" />
        </mxCell>
        <mxCell id="DVXIczmXcuuL40CwADza-50" value="contact" style="ellipse;whiteSpace=wrap;html=1;" parent="1" vertex="1">
          <mxGeometry x="30" y="565" width="110" height="50" as="geometry" />
        </mxCell>
        <mxCell id="DVXIczmXcuuL40CwADza-52" value="" style="endArrow=none;html=1;rounded=0;exitX=1;exitY=0.5;exitDx=0;exitDy=0;entryX=0;entryY=0.5;entryDx=0;entryDy=0;" parent="1" source="DVXIczmXcuuL40CwADza-48" target="DVXIczmXcuuL40CwADza-4" edge="1">
          <mxGeometry width="50" height="50" relative="1" as="geometry">
            <mxPoint x="350" y="560" as="sourcePoint" />
            <mxPoint x="400" y="510" as="targetPoint" />
          </mxGeometry>
        </mxCell>
        <mxCell id="DVXIczmXcuuL40CwADza-53" value="" style="endArrow=none;html=1;rounded=0;exitX=1;exitY=0;exitDx=0;exitDy=0;entryX=0;entryY=1;entryDx=0;entryDy=0;" parent="1" source="DVXIczmXcuuL40CwADza-47" target="DVXIczmXcuuL40CwADza-4" edge="1">
          <mxGeometry width="50" height="50" relative="1" as="geometry">
            <mxPoint x="350" y="560" as="sourcePoint" />
            <mxPoint x="400" y="510" as="targetPoint" />
          </mxGeometry>
        </mxCell>
        <mxCell id="DVXIczmXcuuL40CwADza-54" value="" style="endArrow=none;html=1;rounded=0;exitX=0.5;exitY=0;exitDx=0;exitDy=0;entryX=0.25;entryY=1;entryDx=0;entryDy=0;" parent="1" source="DVXIczmXcuuL40CwADza-50" target="DVXIczmXcuuL40CwADza-4" edge="1">
          <mxGeometry width="50" height="50" relative="1" as="geometry">
            <mxPoint x="350" y="560" as="sourcePoint" />
            <mxPoint x="400" y="510" as="targetPoint" />
          </mxGeometry>
        </mxCell>
        <mxCell id="DVXIczmXcuuL40CwADza-55" value="" style="endArrow=none;html=1;rounded=0;exitX=0;exitY=0;exitDx=0;exitDy=0;entryX=1;entryY=1;entryDx=0;entryDy=0;" parent="1" source="DVXIczmXcuuL40CwADza-45" target="DVXIczmXcuuL40CwADza-4" edge="1">
          <mxGeometry width="50" height="50" relative="1" as="geometry">
            <mxPoint x="350" y="560" as="sourcePoint" />
            <mxPoint x="400" y="510" as="targetPoint" />
          </mxGeometry>
        </mxCell>
        <mxCell id="DVXIczmXcuuL40CwADza-57" value="mobile" style="ellipse;whiteSpace=wrap;html=1;" parent="1" vertex="1">
          <mxGeometry x="90" y="660" width="110" height="50" as="geometry" />
        </mxCell>
        <mxCell id="DVXIczmXcuuL40CwADza-58" value="&lt;u&gt;email&lt;/u&gt;" style="ellipse;whiteSpace=wrap;html=1;" parent="1" vertex="1">
          <mxGeometry x="-40" y="650" width="110" height="50" as="geometry" />
        </mxCell>
        <mxCell id="DVXIczmXcuuL40CwADza-59" value="" style="endArrow=none;html=1;rounded=0;exitX=0.565;exitY=-0.012;exitDx=0;exitDy=0;exitPerimeter=0;entryX=1;entryY=1;entryDx=0;entryDy=0;" parent="1" source="DVXIczmXcuuL40CwADza-57" target="DVXIczmXcuuL40CwADza-50" edge="1">
          <mxGeometry width="50" height="50" relative="1" as="geometry">
            <mxPoint x="350" y="560" as="sourcePoint" />
            <mxPoint x="400" y="510" as="targetPoint" />
          </mxGeometry>
        </mxCell>
        <mxCell id="DVXIczmXcuuL40CwADza-60" value="" style="endArrow=none;html=1;rounded=0;exitX=0.5;exitY=0;exitDx=0;exitDy=0;entryX=0;entryY=1;entryDx=0;entryDy=0;" parent="1" source="DVXIczmXcuuL40CwADza-58" target="DVXIczmXcuuL40CwADza-50" edge="1">
          <mxGeometry width="50" height="50" relative="1" as="geometry">
            <mxPoint x="350" y="560" as="sourcePoint" />
            <mxPoint x="400" y="510" as="targetPoint" />
          </mxGeometry>
        </mxCell>
        <mxCell id="DVXIczmXcuuL40CwADza-61" value="&lt;u&gt;username&lt;/u&gt;" style="ellipse;whiteSpace=wrap;html=1;" parent="1" vertex="1">
          <mxGeometry x="-310" y="425" width="110" height="50" as="geometry" />
        </mxCell>
        <mxCell id="DVXIczmXcuuL40CwADza-62" value="password" style="ellipse;whiteSpace=wrap;html=1;" parent="1" vertex="1">
          <mxGeometry x="-250" y="500" width="110" height="50" as="geometry" />
        </mxCell>
        <mxCell id="DVXIczmXcuuL40CwADza-63" value="" style="endArrow=none;html=1;rounded=0;entryX=0.5;entryY=1;entryDx=0;entryDy=0;exitX=1;exitY=0;exitDx=0;exitDy=0;" parent="1" source="DVXIczmXcuuL40CwADza-62" target="DVXIczmXcuuL40CwADza-48" edge="1">
          <mxGeometry width="50" height="50" relative="1" as="geometry">
            <mxPoint x="40" y="560" as="sourcePoint" />
            <mxPoint x="90" y="510" as="targetPoint" />
          </mxGeometry>
        </mxCell>
        <mxCell id="DVXIczmXcuuL40CwADza-64" value="" style="endArrow=none;html=1;rounded=0;entryX=0;entryY=0.5;entryDx=0;entryDy=0;exitX=1;exitY=0.5;exitDx=0;exitDy=0;" parent="1" source="DVXIczmXcuuL40CwADza-61" target="DVXIczmXcuuL40CwADza-48" edge="1">
          <mxGeometry width="50" height="50" relative="1" as="geometry">
            <mxPoint x="40" y="560" as="sourcePoint" />
            <mxPoint x="90" y="510" as="targetPoint" />
          </mxGeometry>
        </mxCell>
        <mxCell id="DVXIczmXcuuL40CwADza-66" value="" style="group" parent="1" vertex="1" connectable="0">
          <mxGeometry x="800" y="340" width="130" height="60" as="geometry" />
        </mxCell>
        <mxCell id="DVXIczmXcuuL40CwADza-67" value="" style="ellipse;whiteSpace=wrap;html=1;" parent="DVXIczmXcuuL40CwADza-66" vertex="1">
          <mxGeometry width="130" height="60" as="geometry" />
        </mxCell>
        <mxCell id="DVXIczmXcuuL40CwADza-68" value="bill_details" style="ellipse;whiteSpace=wrap;html=1;" parent="DVXIczmXcuuL40CwADza-66" vertex="1">
          <mxGeometry x="5.416666666666667" y="3.75" width="119.16666666666667" height="52.5" as="geometry" />
        </mxCell>
        <mxCell id="DVXIczmXcuuL40CwADza-69" value="" style="group" parent="1" vertex="1" connectable="0">
          <mxGeometry x="210" y="610" width="130" height="60" as="geometry" />
        </mxCell>
        <mxCell id="DVXIczmXcuuL40CwADza-70" value="" style="ellipse;whiteSpace=wrap;html=1;" parent="DVXIczmXcuuL40CwADza-69" vertex="1">
          <mxGeometry width="130" height="60" as="geometry" />
        </mxCell>
        <mxCell id="DVXIczmXcuuL40CwADza-71" value="employee_details" style="ellipse;whiteSpace=wrap;html=1;" parent="DVXIczmXcuuL40CwADza-69" vertex="1">
          <mxGeometry x="5.416666666666667" y="3.75" width="119.16666666666667" height="52.5" as="geometry" />
        </mxCell>
        <mxCell id="DVXIczmXcuuL40CwADza-72" value="" style="endArrow=none;html=1;rounded=0;entryX=0.75;entryY=1;entryDx=0;entryDy=0;" parent="1" source="DVXIczmXcuuL40CwADza-70" target="DVXIczmXcuuL40CwADza-4" edge="1">
          <mxGeometry width="50" height="50" relative="1" as="geometry">
            <mxPoint x="170" y="580" as="sourcePoint" />
            <mxPoint x="220" y="530" as="targetPoint" />
          </mxGeometry>
        </mxCell>
        <mxCell id="DVXIczmXcuuL40CwADza-73" value="&lt;font style=&quot;font-size: 18px;&quot;&gt;Place&lt;/font&gt;" style="rhombus;whiteSpace=wrap;html=1;" parent="1" vertex="1">
          <mxGeometry x="350" y="160" width="105" height="80" as="geometry" />
        </mxCell>
        <mxCell id="DVXIczmXcuuL40CwADza-74" value="" style="endArrow=none;html=1;rounded=0;entryX=0;entryY=0.5;entryDx=0;entryDy=0;exitX=1;exitY=0.5;exitDx=0;exitDy=0;" parent="1" source="DVXIczmXcuuL40CwADza-1" target="DVXIczmXcuuL40CwADza-73" edge="1">
          <mxGeometry width="50" height="50" relative="1" as="geometry">
            <mxPoint x="210" y="290" as="sourcePoint" />
            <mxPoint x="260" y="240" as="targetPoint" />
          </mxGeometry>
        </mxCell>
        <mxCell id="DVXIczmXcuuL40CwADza-75" value="" style="endArrow=none;html=1;rounded=0;entryX=0;entryY=0.5;entryDx=0;entryDy=0;exitX=1;exitY=0.5;exitDx=0;exitDy=0;" parent="1" source="DVXIczmXcuuL40CwADza-73" target="DVXIczmXcuuL40CwADza-2" edge="1">
          <mxGeometry width="50" height="50" relative="1" as="geometry">
            <mxPoint x="210" y="290" as="sourcePoint" />
            <mxPoint x="260" y="240" as="targetPoint" />
          </mxGeometry>
        </mxCell>
        <mxCell id="DVXIczmXcuuL40CwADza-76" value="" style="endArrow=none;html=1;rounded=0;entryX=0.004;entryY=0.579;entryDx=0;entryDy=0;exitX=0.986;exitY=0.554;exitDx=0;exitDy=0;exitPerimeter=0;entryPerimeter=0;" parent="1" source="DVXIczmXcuuL40CwADza-73" target="DVXIczmXcuuL40CwADza-2" edge="1">
          <mxGeometry width="50" height="50" relative="1" as="geometry">
            <mxPoint x="370" y="270" as="sourcePoint" />
            <mxPoint x="420" y="220" as="targetPoint" />
          </mxGeometry>
        </mxCell>
        <mxCell id="DVXIczmXcuuL40CwADza-77" value="1" style="text;html=1;strokeColor=none;fillColor=none;align=center;verticalAlign=middle;whiteSpace=wrap;rounded=0;" parent="1" vertex="1">
          <mxGeometry x="305" y="170" width="60" height="30" as="geometry" />
        </mxCell>
        <mxCell id="DVXIczmXcuuL40CwADza-78" value="N" style="text;html=1;strokeColor=none;fillColor=none;align=center;verticalAlign=middle;whiteSpace=wrap;rounded=0;" parent="1" vertex="1">
          <mxGeometry x="440" y="170" width="60" height="30" as="geometry" />
        </mxCell>
        <mxCell id="DVXIczmXcuuL40CwADza-80" value="" style="endArrow=none;html=1;rounded=0;entryX=0.5;entryY=1;entryDx=0;entryDy=0;exitX=0.5;exitY=0;exitDx=0;exitDy=0;" parent="1" target="DVXIczmXcuuL40CwADza-2" edge="1">
          <mxGeometry width="50" height="50" relative="1" as="geometry">
            <mxPoint x="630" y="250" as="sourcePoint" />
            <mxPoint x="540" y="290" as="targetPoint" />
          </mxGeometry>
        </mxCell>
        <mxCell id="DVXIczmXcuuL40CwADza-81" value="" style="endArrow=none;html=1;rounded=0;entryX=0.5;entryY=1;entryDx=0;entryDy=0;exitX=0.5;exitY=0;exitDx=0;exitDy=0;" parent="1" source="DVXIczmXcuuL40CwADza-3" edge="1">
          <mxGeometry width="50" height="50" relative="1" as="geometry">
            <mxPoint x="490" y="340" as="sourcePoint" />
            <mxPoint x="630" y="330" as="targetPoint" />
          </mxGeometry>
        </mxCell>
        <mxCell id="DVXIczmXcuuL40CwADza-82" value="1" style="text;html=1;strokeColor=none;fillColor=none;align=center;verticalAlign=middle;whiteSpace=wrap;rounded=0;" parent="1" vertex="1">
          <mxGeometry x="615" y="230" width="60" height="30" as="geometry" />
        </mxCell>
        <mxCell id="DVXIczmXcuuL40CwADza-84" value="1" style="text;html=1;strokeColor=none;fillColor=none;align=center;verticalAlign=middle;whiteSpace=wrap;rounded=0;" parent="1" vertex="1">
          <mxGeometry x="610" y="330" width="60" height="30" as="geometry" />
        </mxCell>
        <mxCell id="DVXIczmXcuuL40CwADza-85" value="&lt;font style=&quot;font-size: 18px;&quot;&gt;Create&lt;/font&gt;" style="rhombus;whiteSpace=wrap;html=1;" parent="1" vertex="1">
          <mxGeometry x="330" y="370" width="100" height="80" as="geometry" />
        </mxCell>
        <mxCell id="DVXIczmXcuuL40CwADza-86" value="" style="endArrow=none;html=1;rounded=0;exitX=1;exitY=0.25;exitDx=0;exitDy=0;entryX=0;entryY=0.5;entryDx=0;entryDy=0;" parent="1" source="DVXIczmXcuuL40CwADza-4" target="DVXIczmXcuuL40CwADza-85" edge="1">
          <mxGeometry width="50" height="50" relative="1" as="geometry">
            <mxPoint x="340" y="510" as="sourcePoint" />
            <mxPoint x="390" y="460" as="targetPoint" />
          </mxGeometry>
        </mxCell>
        <mxCell id="DVXIczmXcuuL40CwADza-87" value="" style="endArrow=none;html=1;rounded=0;entryX=0;entryY=0.25;entryDx=0;entryDy=0;exitX=1;exitY=0.5;exitDx=0;exitDy=0;" parent="1" source="DVXIczmXcuuL40CwADza-85" target="DVXIczmXcuuL40CwADza-3" edge="1">
          <mxGeometry width="50" height="50" relative="1" as="geometry">
            <mxPoint x="340" y="510" as="sourcePoint" />
            <mxPoint x="390" y="460" as="targetPoint" />
          </mxGeometry>
        </mxCell>
        <mxCell id="DVXIczmXcuuL40CwADza-88" value="" style="endArrow=none;html=1;rounded=0;entryX=0.954;entryY=0.561;entryDx=0;entryDy=0;entryPerimeter=0;exitX=0;exitY=0.34;exitDx=0;exitDy=0;exitPerimeter=0;" parent="1" source="DVXIczmXcuuL40CwADza-3" target="DVXIczmXcuuL40CwADza-85" edge="1">
          <mxGeometry width="50" height="50" relative="1" as="geometry">
            <mxPoint x="340" y="510" as="sourcePoint" />
            <mxPoint x="390" y="460" as="targetPoint" />
          </mxGeometry>
        </mxCell>
        <mxCell id="DVXIczmXcuuL40CwADza-89" value="1" style="text;html=1;strokeColor=none;fillColor=none;align=center;verticalAlign=middle;whiteSpace=wrap;rounded=0;" parent="1" vertex="1">
          <mxGeometry x="280" y="385" width="60" height="30" as="geometry" />
        </mxCell>
        <mxCell id="DVXIczmXcuuL40CwADza-90" value="N" style="text;html=1;strokeColor=none;fillColor=none;align=center;verticalAlign=middle;whiteSpace=wrap;rounded=0;" parent="1" vertex="1">
          <mxGeometry x="410" y="380" width="60" height="30" as="geometry" />
        </mxCell>
        <mxCell id="qH6ze2uagWs9B4-2gETU-3" value="&lt;font style=&quot;font-size: 18px;&quot;&gt;Generate&lt;/font&gt;" style="rhombus;whiteSpace=wrap;html=1;" vertex="1" parent="1">
          <mxGeometry x="580" y="250" width="100" height="80" as="geometry" />
        </mxCell>
      </root>
    </mxGraphModel>
  </diagram>
</mxfile>
